<?xml version="1.0" encoding="iso-8859-1"?>
<!-- Generator: Adobe Illustrator 19.0.0, SVG Export Plug-In . SVG Version: 6.00 Build 0)  -->
<svg version="1.1" id="Capa_1" xmlns="http://www.w3.org/2000/svg" xmlns:xlink="http://www.w3.org/1999/xlink" x="0px" y="0px"
	 viewBox="0 0 381.409 381.409" style="enable-background:new 0 0 381.409 381.409;" xml:space="preserve">
<g>
	<g>
		<g>
			<path d="M208.98,318.704H0v6.269c0,28.212,24.033,56.424,52.245,56.424h181.812c-14.629-15.673-25.078-35.527-25.078-56.424
				V318.704z"/>
			<path d="M70.531,303.031h147.331c4.18,0,6.792,0.522,6.792,4.702v17.241c0,27.411,22.221,49.633,49.633,49.633
				c27.411,0,49.633-22.221,49.633-49.633V57.48H72.62L70.531,303.031z M108.669,114.949h80.98c4.328,0,7.837,3.509,7.837,7.837
				c0,4.328-3.509,7.837-7.837,7.837h-80.98c-4.328,0-7.837-3.509-7.837-7.837C100.833,118.458,104.341,114.949,108.669,114.949z
				 M108.669,172.419h164.571c4.328,0,7.837,3.509,7.837,7.837s-3.509,7.837-7.837,7.837H108.669c-4.328,0-7.837-3.509-7.837-7.837
				S104.341,172.419,108.669,172.419z M108.669,235.112h164.571c4.328,0,7.837,3.509,7.837,7.837c0,4.328-3.509,7.837-7.837,7.837
				H108.669c-4.328,0-7.837-3.509-7.837-7.837C100.833,238.621,104.341,235.112,108.669,235.112z"/>
			<path d="M377.731,0.01H106.58c-4.328,0-7.837,3.509-7.837,7.837c0,4.328,3.509,7.837,7.837,7.837h259.135v267.494
				c0,4.328,3.509,7.837,7.837,7.837s7.837-3.509,7.837-7.837V7.847C381.388,3.145,381.91,0.01,377.731,0.01z"/>
		</g>
	</g>
</g>
<g>
</g>
<g>
</g>
<g>
</g>
<g>
</g>
<g>
</g>
<g>
</g>
<g>
</g>
<g>
</g>
<g>
</g>
<g>
</g>
<g>
</g>
<g>
</g>
<g>
</g>
<g>
</g>
<g>
</g>
</svg>
